<svg xmlns="http://www.w3.org/2000/svg" width="22" height="22" viewBox="0 0 22 22"><defs><style>.a{fill:#03ea6a;}</style></defs><path class="a" d="M-1990,11a11.014,11.014,0,0,1,11-11,11.014,11.014,0,0,1,11,11,11.014,11.014,0,0,1-11,11A11.014,11.014,0,0,1-1990,11Zm1.548,0A9.465,9.465,0,0,0-1979,20.451,9.465,9.465,0,0,0-1969.548,11,9.465,9.465,0,0,0-1979,1.548,9.444,9.444,0,0,0-1988.452,11Zm8.678,4.968v-4.29h-4.29a.785.785,0,0,1-.774-.774.785.785,0,0,1,.774-.774h4.29V5.839a.785.785,0,0,1,.774-.774.785.785,0,0,1,.774.774v4.29h4.29a.785.785,0,0,1,.774.774.785.785,0,0,1-.774.774h-4.29v4.29a.785.785,0,0,1-.774.774A.785.785,0,0,1-1979.774,15.968Z" transform="translate(1990)"/></svg>