<svg xmlns="http://www.w3.org/2000/svg" width="26" height="26" viewBox="0 0 26 26"><defs><style>.a{fill:#fff;}</style></defs><g transform="translate(-100 -298)"><path d="M28.333,4.5H6.667A2.164,2.164,0,0,0,4.5,6.667V28.333A2.164,2.164,0,0,0,6.667,30.5H28.333A2.164,2.164,0,0,0,30.5,28.333V6.667A2.164,2.164,0,0,0,28.333,4.5Z" transform="translate(95.5 293.5)"/><path class="a" d="M24.571,13.563l-1.156-1.273a.241.241,0,0,0-.184-.084h0a.231.231,0,0,0-.184.084l-8.012,8.641L12.12,17.81a.243.243,0,0,0-.368,0l-1.169,1.252a.294.294,0,0,0,0,.4L14.261,23.4a1.134,1.134,0,0,0,.768.4,1.191,1.191,0,0,0,.762-.387H15.8l8.78-9.45A.317.317,0,0,0,24.571,13.563Z" transform="translate(95.425 293)"/></g></svg>