<svg xmlns="http://www.w3.org/2000/svg" width="36" height="36" viewBox="0 0 36 36"><defs><style>.a{fill:#110828;}.b{fill:#fff;}</style></defs><g transform="translate(-1456 -679)"><rect class="a" width="36" height="36" rx="10" transform="translate(1456 679)"/><path class="b" d="M-1986.807-1112a3.2,3.2,0,0,1-3.193-3.193v-11.613a3.2,3.2,0,0,1,3.193-3.194H-1981a.871.871,0,0,1,.871.871.871.871,0,0,1-.871.871h-5.806a1.453,1.453,0,0,0-1.452,1.452v11.613a1.453,1.453,0,0,0,1.452,1.452h11.613a1.453,1.453,0,0,0,1.452-1.452V-1121a.871.871,0,0,1,.871-.871.871.871,0,0,1,.871.871v5.806a3.2,3.2,0,0,1-3.194,3.193Zm3.1-6.293a.871.871,0,0,1-.219-.866l1.082-3.607a.873.873,0,0,1,.219-.365l6.613-6.613a.87.87,0,0,1,1.231,0l2.526,2.526a.868.868,0,0,1,.255.615.869.869,0,0,1-.255.616l-6.613,6.614a.87.87,0,0,1-.366.218l-3.607,1.082a.868.868,0,0,1-.25.037A.87.87,0,0,1-1983.707-1118.293Zm2.468-3.763-.554,1.848,1.848-.554,5.842-5.843-1.294-1.294Z" transform="translate(3455 1818)"/></g></svg>