<svg xmlns="http://www.w3.org/2000/svg" width="102.001" height="102.001" viewBox="0 0 102.001 102.001"><defs><style>.a{fill:#1877f2;}.b{fill:#fff;}</style></defs><path class="a" d="M102,51a51,51,0,1,0-58.969,50.381V65.743H30.082V51H43.032V39.764c0-12.782,7.614-19.842,19.264-19.842a78.427,78.427,0,0,1,11.416,1V33.469H67.28c-6.335,0-8.311,3.931-8.311,7.965V51H73.114L70.853,65.743H58.969v35.638A51.013,51.013,0,0,0,102,51Z"/><path class="b" d="M342.771,245.821l2.261-14.742H330.887v-9.567c0-4.033,1.976-7.965,8.311-7.965h6.431V201a78.427,78.427,0,0,0-11.416-1c-11.649,0-19.264,7.06-19.264,19.842v11.236H302v14.742h12.949v35.638a51.538,51.538,0,0,0,15.938,0V245.821Z" transform="translate(-271.918 -180.078)"/></svg>