<svg xmlns="http://www.w3.org/2000/svg" width="18.6" height="23" viewBox="0 0 18.6 23"><defs><style>.a{fill:#fff;}</style></defs><path class="a" d="M-3683.75-1147a3.257,3.257,0,0,1-3.25-3.25v-4.4a1.051,1.051,0,0,1,1.05-1.049,1.05,1.05,0,0,1,1.049,1.049v4.4a1.155,1.155,0,0,0,1.151,1.15h12.1a1.153,1.153,0,0,0,1.15-1.15v-16.5a1.154,1.154,0,0,0-1.151-1.15h-12.1a1.154,1.154,0,0,0-1.15,1.15v4.4a1.05,1.05,0,0,1-1.049,1.049,1.051,1.051,0,0,1-1.05-1.049v-4.4a3.258,3.258,0,0,1,3.25-3.251h12.1a3.257,3.257,0,0,1,3.25,3.25v16.5a3.258,3.258,0,0,1-3.25,3.251Zm4.95-6.6a1.051,1.051,0,0,1-1.049-1.05,1.043,1.043,0,0,1,.307-.742l2.058-2.058h-8.465a1.051,1.051,0,0,1-1.05-1.049,1.051,1.051,0,0,1,1.05-1.05h8.465l-2.058-2.058a1.056,1.056,0,0,1,.019-1.491,1.051,1.051,0,0,1,.73-.294,1.046,1.046,0,0,1,.729.293l3.857,3.857a1.043,1.043,0,0,1,.307.742,1.045,1.045,0,0,1-.306.742l-3.851,3.851a1.043,1.043,0,0,1-.742.307Z" transform="translate(3687 1170)"/></svg>