<svg xmlns="http://www.w3.org/2000/svg" width="18.1" height="22.501" viewBox="0 0 18.1 22.501"><defs><style>.a{fill:#110828;}</style></defs><path class="a" d="M-3684-17.5a3.007,3.007,0,0,1-3-3v-4.4a.8.8,0,0,1,.8-.8.8.8,0,0,1,.8.8v4.4a1.4,1.4,0,0,0,1.4,1.4h12.1a1.4,1.4,0,0,0,1.4-1.4V-37a1.4,1.4,0,0,0-1.4-1.4H-3684a1.4,1.4,0,0,0-1.4,1.4v4.4a.8.8,0,0,1-.8.8.8.8,0,0,1-.8-.8V-37a3.008,3.008,0,0,1,3-3h12.1a3.007,3.007,0,0,1,3,3v16.5a3.008,3.008,0,0,1-3,3Zm4.949-6.6a.8.8,0,0,1-.8-.8.8.8,0,0,1,.234-.565l2.485-2.484h-9.068a.8.8,0,0,1-.8-.8.8.8,0,0,1,.8-.8h9.068l-2.485-2.484a.8.8,0,0,1,.017-1.134.8.8,0,0,1,.556-.224.8.8,0,0,1,.556.224l3.853,3.853a.794.794,0,0,1,.234.565.8.8,0,0,1-.234.566l-3.85,3.85a.794.794,0,0,1-.565.234ZM-3679.05-24.35Z" transform="translate(3687 40)"/></svg>