<svg xmlns="http://www.w3.org/2000/svg" width="21.415" height="23.5" viewBox="0 0 21.415 23.5"><defs><style>.a{fill:#fff;}</style></defs><g transform="translate(-0.001 0)"><path class="a" d="M8.628.75H0A.75.75,0,0,1-.75,0,.75.75,0,0,1,0-.75H8.628a.75.75,0,0,1,.75.75A.75.75,0,0,1,8.628.75Z" transform="translate(6.421 16.85)"/><path class="a" d="M8.628.75H0A.75.75,0,0,1-.75,0,.75.75,0,0,1,0-.75H8.628a.75.75,0,0,1,.75.75A.75.75,0,0,1,8.628.75Z" transform="translate(6.421 11.848)"/><path class="a" d="M3.292.75H0A.75.75,0,0,1-.75,0,.75.75,0,0,1,0-.75H3.292a.75.75,0,0,1,.75.75A.75.75,0,0,1,3.292.75Z" transform="translate(6.421 6.857)"/><path class="a" d="M15.279,0h0a6.054,6.054,0,0,1,4.479,1.733,6.333,6.333,0,0,1,1.657,4.522V17.244a6.333,6.333,0,0,1-1.644,4.5A6.039,6.039,0,0,1,15.328,23.5l-9.193,0a6.053,6.053,0,0,1-4.479-1.733A6.334,6.334,0,0,1,0,17.244V6.255a6.332,6.332,0,0,1,1.643-4.5A6.039,6.039,0,0,1,6.086,0ZM6.135,22l9.188,0c2.83-.017,4.592-1.838,4.592-4.752V6.255c0-2.933-1.776-4.755-4.636-4.755l-9.188,0C3.261,1.522,1.5,3.342,1.5,6.255V17.244C1.5,20.178,3.277,22,6.135,22Z" transform="translate(0 0)"/></g></svg>