<svg xmlns="http://www.w3.org/2000/svg" width="20" height="14.667" viewBox="0 0 20 14.667"><defs><style>.a,.b{fill:#03ea6a;}.a{fill-rule:evenodd;}</style></defs><g transform="translate(-1 -5)"><path class="a" d="M4.333,5H17.667A3.323,3.323,0,0,1,21,8.333v8a3.323,3.323,0,0,1-3.333,3.333H4.333A3.323,3.323,0,0,1,1,16.333v-8A3.323,3.323,0,0,1,4.333,5Zm0,1.333H17.667a2,2,0,0,1,2,2v8a2,2,0,0,1-2,2H4.333a2,2,0,0,1-2-2v-8a2,2,0,0,1,2-2Z"/><path class="b" d="M20.034,9.074a.685.685,0,0,1,.513-.04.671.671,0,0,1,.38.333.685.685,0,0,1,.04.513.671.671,0,0,1-.333.38l-8.14,4.073c-.007,0-.013.007-.02.007a3.621,3.621,0,0,1-2.947,0c-.007,0-.013-.007-.02-.007l-8.14-4.073a.671.671,0,0,1-.333-.38.685.685,0,0,1,.04-.513.671.671,0,0,1,.38-.333.685.685,0,0,1,.513.04l8.133,4.06a1.985,1.985,0,0,0,.9.187,1.985,1.985,0,0,0,.9-.187ZM7.667,17a.667.667,0,1,1,0,1.333H4.334a.667.667,0,1,1,0-1.333Z" transform="translate(-0.001 -1.334)"/></g></svg>