<svg xmlns="http://www.w3.org/2000/svg" width="20" height="20" viewBox="0 0 20 20"><defs><style>.a{fill:#03ea6a;}</style></defs><path class="a" d="M22.863,17.454l-1.786-1.786a2.858,2.858,0,0,0-4.008-.017,1.747,1.747,0,0,1-2.215.217,12.2,12.2,0,0,1-3.361-3.355,1.77,1.77,0,0,1,.231-2.223,2.858,2.858,0,0,0-.025-4L9.912,4.507a2.852,2.852,0,0,0-4.027,0l-.514.515C2.692,7.7,2.893,13.332,8.466,18.9c3.361,3.361,6.743,4.769,9.486,4.769A6.088,6.088,0,0,0,22.35,22l.515-.515A2.852,2.852,0,0,0,22.863,17.454Zm-1.148,2.883-.515.515c-2.111,2.111-6.769,1.725-11.589-3.1S4.407,8.274,6.517,6.163l.511-.514a1.227,1.227,0,0,1,1.731,0l1.786,1.786a1.227,1.227,0,0,1,.017,1.713,3.394,3.394,0,0,0-.431,4.253,13.808,13.808,0,0,0,3.826,3.82A3.392,3.392,0,0,0,18.2,16.8a1.227,1.227,0,0,1,1.719.011L21.708,18.6a1.226,1.226,0,0,1,.007,1.739Z" transform="translate(-3.698 -3.675)"/></svg>