<svg xmlns="http://www.w3.org/2000/svg" width="21.854" height="23.5" viewBox="0 0 21.854 23.5"><defs><style>.a{fill:#200e32;}</style></defs><g transform="translate(-0.03 -0.028)"><path class="a" d="M10.238.028h1.436a2.939,2.939,0,0,1,2.939,3.006A1.348,1.348,0,0,0,14.8,3.7a1.422,1.422,0,0,0,.876.664,1.441,1.441,0,0,0,1.084-.152l.008,0a2.939,2.939,0,0,1,4.008,1.083l.712,1.236a.75.75,0,0,1,.045.092,2.95,2.95,0,0,1-1.112,3.916l-.006,0a1.4,1.4,0,0,0-.518.518l0,0a1.429,1.429,0,0,0,.522,1.958,2.929,2.929,0,0,1,1.07,4.013l0,.008-.752,1.253a2.939,2.939,0,0,1-4.006,1.064,1.483,1.483,0,0,0-.685-.193,1.42,1.42,0,0,0-1.009.419,1.438,1.438,0,0,0-.419,1.017s0,0,0,.007a2.946,2.946,0,0,1-2.939,2.926H10.238A2.943,2.943,0,0,1,7.3,20.593a1.347,1.347,0,0,0-.188-.67l-.006-.01a1.419,1.419,0,0,0-1.946-.521l-.011.006a2.94,2.94,0,0,1-4-1.132L.422,17.026a2.933,2.933,0,0,1,1.069-4,1.44,1.44,0,0,0,0-2.494A2.946,2.946,0,0,1,.421,6.522l.009-.015.76-1.25a2.938,2.938,0,0,1,4-1.075l.01.006a1.347,1.347,0,0,0,.669.188A1.445,1.445,0,0,0,7.309,2.963,2.929,2.929,0,0,1,10.238.028Zm5.8,5.877a2.929,2.929,0,0,1-2.527-1.447,2.846,2.846,0,0,1-.4-1.419q0-.015,0-.03a1.439,1.439,0,0,0-1.439-1.481v0H10.238A1.429,1.429,0,0,0,8.809,2.964s0,.01,0,.014a2.952,2.952,0,0,1-2.939,2.9H5.862a2.849,2.849,0,0,1-1.417-.395,1.438,1.438,0,0,0-1.959.533l-.009.015-.76,1.249a1.442,1.442,0,0,0,.527,1.956,2.94,2.94,0,0,1,0,5.09,1.431,1.431,0,0,0-.522,1.951l.722,1.245.007.013a1.44,1.44,0,0,0,1.958.561A2.919,2.919,0,0,1,8.4,19.163a2.848,2.848,0,0,1,.4,1.418s0,.005,0,.008a1.441,1.441,0,0,0,1.44,1.439h1.435a1.443,1.443,0,0,0,1.439-1.43,2.948,2.948,0,0,1,.858-2.081,2.91,2.91,0,0,1,2.071-.858h.031a2.99,2.99,0,0,1,1.4.392,1.439,1.439,0,0,0,1.965-.522l.005-.009.752-1.253a1.429,1.429,0,0,0-.524-1.954A2.929,2.929,0,0,1,18.6,10.3a2.9,2.9,0,0,1,1.07-1.071,1.444,1.444,0,0,0,.521-1.955A.749.749,0,0,1,20.15,7.2l-.673-1.167a1.445,1.445,0,0,0-1.249-.721h0a1.438,1.438,0,0,0-.711.189A2.931,2.931,0,0,1,16.036,5.9Z" transform="translate(0 0)"/><path class="a" d="M2.636-.75A3.386,3.386,0,1,1-.75,2.636,3.39,3.39,0,0,1,2.636-.75Zm0,5.272A1.886,1.886,0,1,0,.75,2.636,1.888,1.888,0,0,0,2.636,4.522Z" transform="translate(8.325 9.142)"/></g></svg>