<svg xmlns="http://www.w3.org/2000/svg" xmlns:xlink="http://www.w3.org/1999/xlink" width="101.545" height="102.001" viewBox="0 0 101.545 102.001"><defs><style>.a{fill:#e0e0e0;}.b{fill:url(#a);}.c,.d{fill:#fff;}.c{fill-rule:evenodd;}</style><linearGradient id="a" x1="0.5" y1="1" x2="0.5" gradientUnits="objectBoundingBox"><stop offset="0" stop-color="#20b038"/><stop offset="1" stop-color="#60d66a"/></linearGradient></defs><path class="a" d="M86.75,14.823A50.565,50.565,0,0,0,7.173,75.81L0,102l26.8-7.028a50.526,50.526,0,0,0,24.161,6.153h.022a50.563,50.563,0,0,0,35.765-86.3ZM50.985,92.589h-.016A41.972,41.972,0,0,1,29.58,86.732l-1.535-.91-15.905,4.17,4.247-15.5-1-1.589a42.025,42.025,0,1,1,35.6,19.688Z"/><path class="b" d="M27.875,118.417,34.72,93.423a48.252,48.252,0,1,1,41.81,24.158h-.021a48.235,48.235,0,0,1-23.056-5.87l-25.578,6.707Z" transform="translate(-25.554 -19.323)"/><path class="c" d="M320.194,325.215c-.935-2.08-1.92-2.121-2.81-2.158-.728-.031-1.561-.029-2.393-.029a4.588,4.588,0,0,0-3.33,1.563A14,14,0,0,0,307.289,335c0,6.145,4.475,12.082,5.1,12.916s8.639,13.844,21.333,18.85c10.549,4.16,12.7,3.333,14.986,3.124s7.388-3.02,8.429-5.937,1.041-5.415.729-5.937-1.145-.833-2.394-1.457-7.388-3.646-8.533-4.062-1.978-.624-2.81.626-3.225,4.061-3.953,4.894-1.457.939-2.706.314a34.158,34.158,0,0,1-10.042-6.2,37.613,37.613,0,0,1-6.947-8.648c-.729-1.249-.078-1.925.548-2.548.561-.559,1.249-1.458,1.873-2.187a8.562,8.562,0,0,0,1.248-2.082,2.3,2.3,0,0,0-.1-2.188c-.312-.624-2.739-6.8-3.85-9.27Z" transform="translate(-281.703 -296.131)"/><path class="d" d="M92.754,14.767A49.985,49.985,0,0,0,14.09,75.054L7,100.944,33.5,94a49.946,49.946,0,0,0,23.883,6.082H57.4A49.983,49.983,0,0,0,92.754,14.767ZM57.4,91.64h-.016A41.49,41.49,0,0,1,36.24,85.851l-1.518-.9L19,89.073l4.2-15.324-.989-1.571A41.543,41.543,0,1,1,57.4,91.64Z" transform="translate(-6.417 -0.105)"/></svg>